STARTFONT 2.1
COMMENT the Lisp Machine name for this font was "31vgb.ast"
FONT vgb-31.bdf
SIZE 29 75 75
FONTBOUNDINGBOX 32 24 0 0
STARTPROPERTIES 3
FONT_DESCENT 7
FONT_ASCENT 24
COPYRIGHT "Public domain font.  Share and enjoy."
ENDPROPERTIES
CHARS 119
STARTCHAR C002
ENCODING 2
SWIDTH 137 0
DWIDTH 4 0
BBX 4 31 0 -7
BITMAP
00
00
00
00
00
00
00
00
00
00
00
00
00
00
00
00
c0
c0
00
00
c0
c0
c0
c0
c0
c0
c0
c0
c0
c0
00
ENDCHAR
STARTCHAR C003
ENCODING 3
SWIDTH 413 0
DWIDTH 12 0
BBX 12 31 0 -7
BITMAP
0000
0000
0000
0000
0000
0000
0000
0000
0000
0000
0000
0000
0000
0000
0000
ce00
df00
f380
e180
c180
c180
c180
e180
f380
df00
ce00
c000
c000
c000
c000
0000
ENDCHAR
STARTCHAR C004
ENCODING 4
SWIDTH 689 0
DWIDTH 20 0
BBX 20 31 0 -7
BITMAP
000000
000000
000000
000000
000000
000000
00c000
01e000
033000
033000
033000
061800
061800
0c0c00
0c0c00
0c0c00
380700
380700
700380
700380
c000c0
c000c0
c000c0
000000
000000
000000
000000
000000
000000
000000
000000
ENDCHAR
STARTCHAR C005
ENCODING 5
SWIDTH 413 0
DWIDTH 12 0
BBX 12 31 0 -7
BITMAP
0000
0000
0000
0000
0000
0000
0000
0000
0000
0000
0000
0000
0000
0000
0000
0000
0000
0000
0000
1e00
3f00
6180
0180
1f80
7f80
c180
c380
c780
fd80
7980
0000
ENDCHAR
STARTCHAR C006
ENCODING 6
SWIDTH 482 0
DWIDTH 14 0
BBX 14 31 0 -7
BITMAP
0000
0000
0000
0000
0000
03e0
0600
0c00
3800
3800
7000
7000
f000
ffe0
f000
f000
7000
7000
3800
0c00
0600
0600
03e0
0000
0000
0000
0000
0000
0000
0000
0000
ENDCHAR
STARTCHAR C007
ENCODING 7
SWIDTH 655 0
DWIDTH 19 0
BBX 19 31 0 -7
BITMAP
000000
000000
000000
000000
000000
000000
000000
000000
fff000
fff000
ffff00
381f80
381800
381800
381800
381800
381800
381800
381800
381800
381800
381800
381800
f81800
000f80
000000
000000
000000
000000
000000
000000
ENDCHAR
STARTCHAR C010
ENCODING 8
SWIDTH 413 0
DWIDTH 12 0
BBX 12 31 0 -7
BITMAP
0000
0000
0000
0000
0000
0000
0000
0000
0000
0000
0000
0000
0000
0000
0000
0000
0000
0000
0000
0000
1f00
7f00
e180
c180
c000
c000
c000
e180
7f80
3f00
0000
ENDCHAR
STARTCHAR C013
ENCODING 11
SWIDTH 620 0
DWIDTH 18 0
BBX 18 31 0 -7
BITMAP
0380
07c0
0fe0
1ff0
3bb8
739c
e38e
0380
0380
0380
0380
0380
0380
0380
0380
0380
0380
0380
0380
0380
0380
0380
0380
0380
0000
0000
0000
0000
0000
0000
0000
ENDCHAR
STARTCHAR C016
ENCODING 14
SWIDTH 413 0
DWIDTH 12 0
BBX 12 31 0 -7
BITMAP
0000
0000
0000
0000
0000
0000
0000
0000
0000
0000
0000
0000
0000
0000
0000
0000
0000
0000
0000
0000
c180
c180
c180
c180
c980
dd80
dd80
f780
e380
c180
0000
ENDCHAR
STARTCHAR C017
ENCODING 15
SWIDTH 413 0
DWIDTH 12 0
BBX 12 31 0 -7
BITMAP
0000
0000
0000
0000
0000
0000
0000
0000
0000
0000
0000
0000
0000
0000
0000
0000
0000
0000
0000
c000
db80
ffc0
ccc0
ccc0
ccc0
ccc0
ccc0
ccc0
ccc0
ccc0
0000
ENDCHAR
STARTCHAR C020
ENCODING 16
SWIDTH 413 0
DWIDTH 12 0
BBX 12 31 0 -7
BITMAP
0000
0000
0000
0000
0000
0000
0000
0000
0000
0000
0000
0000
0000
0000
0000
0000
0000
0000
0000
0000
ce00
df00
f180
e180
c000
c000
c000
c000
c000
c000
0000
ENDCHAR
STARTCHAR C021
ENCODING 17
SWIDTH 689 0
DWIDTH 20 0
BBX 20 31 0 -7
BITMAP
000000
000000
000000
000000
000000
000000
000000
fff800
fffc00
fffc00
000f00
000780
000380
000380
000380
000380
000780
000f00
fffc00
fff800
000000
000000
000000
000000
000000
000000
000000
000000
000000
000000
000000
ENDCHAR
STARTCHAR C022
ENCODING 18
SWIDTH 413 0
DWIDTH 12 0
BBX 12 31 0 -7
BITMAP
0000
0000
0000
0000
0000
0000
0000
0000
0000
0000
0000
0000
0000
0000
0000
0000
0180
0180
0180
0180
3d80
7f80
e380
c180
c180
c180
c380
c780
7d80
3980
0000
ENDCHAR
STARTCHAR C023
ENCODING 19
SWIDTH 137 0
DWIDTH 4 0
BBX 4 31 0 -7
BITMAP
c0
c0
00
00
c0
c0
c0
c0
c0
c0
c0
c0
c0
c0
00
00
00
00
00
00
00
00
00
00
00
00
00
00
00
00
00
ENDCHAR
STARTCHAR C024
ENCODING 20
SWIDTH 655 0
DWIDTH 19 0
BBX 19 31 0 -7
BITMAP
c00380
c00380
700700
700700
700700
700700
380c00
380c00
3ffc00
3ffc00
0ff800
0c1800
0c1800
063000
063000
063000
063000
03e000
03e000
03e000
01c000
01c000
01c000
01c000
000000
000000
000000
000000
000000
000000
000000
ENDCHAR
STARTCHAR C025
ENCODING 21
SWIDTH 275 0
DWIDTH 8 0
BBX 8 31 0 -7
BITMAP
00
00
00
00
00
00
00
fc
fc
00
00
00
00
00
00
00
00
00
00
00
00
00
00
00
00
00
00
00
00
00
00
ENDCHAR
STARTCHAR C027
ENCODING 23
SWIDTH 517 0
DWIDTH 15 0
BBX 15 31 0 -7
BITMAP
0000
71e0
fbf0
df38
ce18
0c18
0c18
0c18
0c18
0c18
0c18
0c18
0c18
0c18
0c18
0c18
0c18
0c18
0c18
0c18
0018
0018
0018
0018
0000
0000
0000
0000
0000
0000
0000
ENDCHAR
STARTCHAR C030
ENCODING 24
SWIDTH 793 0
DWIDTH 23 0
BBX 23 31 0 -7
BITMAP
000000
000000
000000
000000
000000
000000
000000
030000
070000
070000
0e0000
3c0000
780000
fffff0
fffff0
fffff0
780000
3c0000
0e0000
070000
030000
030000
000000
000000
000000
000000
000000
000000
000000
000000
000000
ENDCHAR
STARTCHAR C031
ENCODING 25
SWIDTH 758 0
DWIDTH 22 0
BBX 22 31 0 -7
BITMAP
000000
000000
000000
000000
000000
000000
000000
000800
000c00
000c00
000700
000380
0000c0
ffffe0
ffffe0
ffffe0
0000c0
000380
000700
000c00
000800
000800
000000
000000
000000
000000
000000
000000
000000
000000
000000
ENDCHAR
STARTCHAR C032
ENCODING 26
SWIDTH 655 0
DWIDTH 19 0
BBX 19 31 0 -7
BITMAP
0000
0000
000e
000e
000e
0018
0018
0030
0030
0030
0060
fffe
fffe
01c0
0380
0380
fffe
fffe
0c00
1800
1800
1800
7000
7000
e000
e000
0000
0000
0000
0000
0000
ENDCHAR
STARTCHAR C034
ENCODING 28
SWIDTH 482 0
DWIDTH 14 0
BBX 14 31 0 -7
BITMAP
0f00
6660
e670
f6f0
3fc0
1f80
3fc0
f6f0
e670
6660
0f00
0f00
0000
0000
0000
0000
0000
0000
0000
0000
0000
0000
0000
0000
0000
0000
0000
0000
0000
0000
0000
ENDCHAR
STARTCHAR C035
ENCODING 29
SWIDTH 241 0
DWIDTH 7 0
BBX 7 31 0 -7
BITMAP
00
00
00
00
60
f0
f0
60
00
00
00
00
00
00
00
00
00
00
00
00
00
00
00
00
00
00
00
00
00
00
00
ENDCHAR
STARTCHAR C036
ENCODING 30
SWIDTH 310 0
DWIDTH 9 0
BBX 9 31 0 -7
BITMAP
00
00
00
00
00
00
00
00
00
00
00
00
00
00
00
00
fc
fc
30
30
30
30
30
30
30
30
30
30
fc
fc
00
ENDCHAR
STARTCHAR C037
ENCODING 31
SWIDTH 689 0
DWIDTH 20 0
BBX 20 31 0 -7
BITMAP
000000
000000
000000
000000
000000
000000
000000
c000c0
c000c0
c000c0
700380
700380
380700
380700
0c0c00
0c0c00
0c0c00
061800
061800
033000
033000
033000
01e000
00c000
000000
000000
000000
000000
000000
000000
000000
ENDCHAR
STARTCHAR C040
ENCODING 32
SWIDTH 413 0
DWIDTH 12 0
BBX 12 31 0 -7
BITMAP
00
00
00
00
00
00
00
00
00
00
00
00
00
00
00
00
00
00
00
00
00
00
00
00
00
00
00
00
00
00
00
ENDCHAR
STARTCHAR !
ENCODING 33
SWIDTH 310 0
DWIDTH 9 0
BBX 9 31 0 -7
BITMAP
00
78
fc
fc
fc
fc
fc
fc
78
78
78
78
78
78
78
78
00
00
00
78
fc
fc
fc
78
00
00
00
00
00
00
00
ENDCHAR
STARTCHAR "
ENCODING 34
SWIDTH 448 0
DWIDTH 13 0
BBX 13 31 0 -7
BITMAP
f3c0
f3c0
f3c0
f3c0
f3c0
f3c0
f3c0
6180
0000
0000
0000
0000
0000
0000
0000
0000
0000
0000
0000
0000
0000
0000
0000
0000
0000
0000
0000
0000
0000
0000
0000
ENDCHAR
STARTCHAR #
ENCODING 35
SWIDTH 689 0
DWIDTH 20 0
BBX 20 31 0 -7
BITMAP
000000
000000
000000
000000
000000
000000
000000
0e3800
0e3800
0e3800
0e3800
ffff80
ffff80
0e3800
0e3800
0e3800
0e3800
ffff80
ffff80
0e3800
0e3800
0e3800
0e3800
000000
000000
000000
000000
000000
000000
000000
000000
ENDCHAR
STARTCHAR $
ENCODING 36
SWIDTH 620 0
DWIDTH 18 0
BBX 18 31 0 -7
BITMAP
0000
0c60
0fe0
3ffc
7c7e
6c7e
ec6e
ec60
ec60
ec60
ec60
7c60
7fe0
3ff8
0ffc
0c7c
0c6e
0c6e
0c6e
ec6e
ec6e
fc7c
7ffc
1ff8
0c60
0000
0000
0000
0000
0000
0000
ENDCHAR
STARTCHAR %
ENCODING 37
SWIDTH 655 0
DWIDTH 19 0
BBX 19 31 0 -7
BITMAP
000000
000000
001e00
3c1e00
7f1e00
e73c00
e73c00
e77800
7e7800
3c7800
00f000
00f000
01e000
01e000
03c000
03c000
03c000
079e00
0f3f00
1e7380
1e7380
1e7380
3c3f00
3c1e00
000000
000000
000000
000000
000000
000000
000000
ENDCHAR
STARTCHAR &
ENCODING 38
SWIDTH 827 0
DWIDTH 24 0
BBX 24 31 0 -7
BITMAP
000000
01f800
07be00
07be00
071e00
0e0f80
0f0e00
0f1e00
07bc00
07bc00
07f000
07e3f8
3fe060
7df060
78f860
78f860
f8f8e0
f83cc0
f83cc0
fc1f80
fc0f80
fc0f80
7e1fc0
3ffbf0
078000
000000
000000
000000
000000
000000
000000
ENDCHAR
STARTCHAR '
ENCODING 39
SWIDTH 310 0
DWIDTH 9 0
BBX 9 31 0 -7
BITMAP
00
fc
fe
fe
ee
06
0e
3c
78
78
00
00
00
00
00
00
00
00
00
00
00
00
00
00
00
00
00
00
00
00
00
ENDCHAR
STARTCHAR (
ENCODING 40
SWIDTH 413 0
DWIDTH 12 0
BBX 12 31 0 -7
BITMAP
03
07
0e
0e
0e
3c
3c
3c
78
78
78
f8
f0
f0
f0
f0
f8
78
78
78
3c
3c
3c
0e
0e
0e
07
03
00
00
00
ENDCHAR
STARTCHAR )
ENCODING 41
SWIDTH 413 0
DWIDTH 12 0
BBX 12 31 0 -7
BITMAP
c0
e0
70
70
70
3c
3c
3c
1e
1e
1e
1f
0f
0f
0f
0f
1f
1e
1e
1e
3c
3c
3c
70
70
70
e0
c0
00
00
00
ENDCHAR
STARTCHAR *
ENCODING 42
SWIDTH 586 0
DWIDTH 17 0
BBX 17 31 0 -7
BITMAP
0000
0000
0000
0000
0000
0000
0300
0780
0780
0780
fb3c
fffc
3ff0
0780
0780
0780
3ff0
fffc
fb3c
0780
0780
0780
0300
0000
0000
0000
0000
0000
0000
0000
0000
ENDCHAR
STARTCHAR +
ENCODING 43
SWIDTH 655 0
DWIDTH 19 0
BBX 19 31 0 -7
BITMAP
0000
0000
0000
0000
0000
0000
0000
03c0
03c0
03c0
03c0
03c0
03c0
ffff
ffff
ffff
03c0
03c0
03c0
03c0
03c0
03c0
0000
0000
0000
0000
0000
0000
0000
0000
0000
ENDCHAR
STARTCHAR ,
ENCODING 44
SWIDTH 275 0
DWIDTH 8 0
BBX 8 31 0 -7
BITMAP
00
00
00
00
00
00
00
00
00
00
00
00
00
00
00
00
00
00
00
78
fc
fc
fc
3c
3c
7c
78
78
f0
c0
00
ENDCHAR
STARTCHAR -
ENCODING 45
SWIDTH 586 0
DWIDTH 17 0
BBX 17 31 0 -7
BITMAP
0000
0000
0000
0000
0000
0000
0000
0000
0000
0000
0000
0000
0000
fff8
fff8
fff8
0000
0000
0000
0000
0000
0000
0000
0000
0000
0000
0000
0000
0000
0000
0000
ENDCHAR
STARTCHAR .
ENCODING 46
SWIDTH 275 0
DWIDTH 8 0
BBX 8 31 0 -7
BITMAP
00
00
00
00
00
00
00
00
00
00
00
00
00
00
00
00
00
00
00
00
70
f8
f8
70
00
00
00
00
00
00
00
ENDCHAR
STARTCHAR /
ENCODING 47
SWIDTH 586 0
DWIDTH 17 0
BBX 17 31 0 -7
BITMAP
0038
0078
0070
0070
0070
01f0
01e0
01e0
03e0
03e0
03c0
03c0
07c0
0700
0700
0700
0f00
0e00
0e00
1e00
1c00
1c00
1c00
7c00
7800
7800
f800
f800
f000
f000
0000
ENDCHAR
STARTCHAR 0
ENCODING 48
SWIDTH 689 0
DWIDTH 20 0
BBX 20 31 0 -7
BITMAP
000000
07f000
0ff800
1ffc00
3e3e00
7c1f00
780f00
f80f80
f00780
f00780
f00780
f00780
f00780
f00780
f00780
f00780
f00780
f80f80
780f00
7c1f00
3e3e00
1ffc00
0ff800
07f000
000000
000000
000000
000000
000000
000000
000000
ENDCHAR
STARTCHAR 1
ENCODING 49
SWIDTH 689 0
DWIDTH 20 0
BBX 20 31 0 -7
BITMAP
0000
1e00
3e00
fe00
fe00
1e00
1e00
1e00
1e00
1e00
1e00
1e00
1e00
1e00
1e00
1e00
1e00
1e00
1e00
1e00
1e00
1e00
ffc0
ffc0
0000
0000
0000
0000
0000
0000
0000
ENDCHAR
STARTCHAR 2
ENCODING 50
SWIDTH 689 0
DWIDTH 20 0
BBX 20 31 0 -7
BITMAP
0000
07e0
1ff8
3ffc
7e7e
f81f
f00f
f00f
000f
001f
003f
007e
00fc
01f8
07f0
0fe0
1fc0
3f00
7e00
7c00
f800
ffff
ffff
ffff
0000
0000
0000
0000
0000
0000
0000
ENDCHAR
STARTCHAR 3
ENCODING 51
SWIDTH 689 0
DWIDTH 20 0
BBX 20 31 0 -7
BITMAP
000000
0ff800
3ffc00
7ffe00
7c3f00
f80f80
f00780
f00780
000780
000f80
001f00
07fe00
07fc00
07fe00
001f00
000f80
000780
f00780
f00780
f80f80
7c3f00
7ffe00
3ffc00
0ff800
000000
000000
000000
000000
000000
000000
000000
ENDCHAR
STARTCHAR 4
ENCODING 52
SWIDTH 689 0
DWIDTH 20 0
BBX 20 31 0 -7
BITMAP
000000
00fe00
01fe00
01fe00
03de00
03de00
079e00
079e00
0f1e00
0f1e00
1e1e00
1e1e00
3c1e00
3c1e00
781e00
ffffc0
ffffc0
ffffc0
001e00
001e00
001e00
001e00
001e00
001e00
000000
000000
000000
000000
000000
000000
000000
ENDCHAR
STARTCHAR 5
ENCODING 53
SWIDTH 689 0
DWIDTH 20 0
BBX 20 31 0 -7
BITMAP
0000
fffe
fffe
fffe
f000
f000
f000
f000
f000
f3f8
fffc
fffe
fc3e
f81f
000f
000f
000f
000f
000f
f81f
fc3f
fffe
3ffc
0ff8
0000
0000
0000
0000
0000
0000
0000
ENDCHAR
STARTCHAR 6
ENCODING 54
SWIDTH 689 0
DWIDTH 20 0
BBX 20 31 0 -7
BITMAP
0000
0fe0
1ff8
3ffc
7e3e
7c1e
f800
f800
f000
f000
f3e0
f7f8
fff8
fc7c
f83e
f01e
f01e
f01e
f01e
f83e
7c7e
7ffc
3ff8
0fe0
0000
0000
0000
0000
0000
0000
0000
ENDCHAR
STARTCHAR 7
ENCODING 55
SWIDTH 689 0
DWIDTH 20 0
BBX 20 31 0 -7
BITMAP
0000
fffe
fffe
fffe
003e
003c
007c
0078
00f8
00f0
01f0
01e0
03e0
03c0
07c0
0780
0f80
0f00
1f00
1e00
3e00
3c00
7c00
7800
0000
0000
0000
0000
0000
0000
0000
ENDCHAR
STARTCHAR 8
ENCODING 56
SWIDTH 689 0
DWIDTH 20 0
BBX 20 31 0 -7
BITMAP
000000
0ff800
3ffe00
3ffe00
7c1f00
780f00
780f00
780f00
7c1f00
3e3e00
3f7e00
0ff800
07f000
1ffc00
7f7f00
7c1f00
f80f80
f00780
f00780
f80f80
fc1f80
7fff00
7fff00
1ffc00
000000
000000
000000
000000
000000
000000
000000
ENDCHAR
STARTCHAR 9
ENCODING 57
SWIDTH 689 0
DWIDTH 20 0
BBX 20 31 0 -7
BITMAP
0000
0fe0
3ff8
7ffc
fc7c
f83e
f01e
f01e
f01e
f01e
f83e
fc7e
7ffe
3ffe
0ffe
001e
001e
003e
003e
f07c
f8fc
7ff8
3ff0
1fe0
0000
0000
0000
0000
0000
0000
0000
ENDCHAR
STARTCHAR :
ENCODING 58
SWIDTH 310 0
DWIDTH 9 0
BBX 9 31 0 -7
BITMAP
00
00
00
00
00
00
00
00
00
00
78
fc
fc
78
00
00
00
00
00
78
fc
fc
fc
78
00
00
00
00
00
00
00
ENDCHAR
STARTCHAR ;
ENCODING 59
SWIDTH 275 0
DWIDTH 8 0
BBX 8 31 0 -7
BITMAP
00
00
00
00
00
00
00
00
00
00
78
fc
fc
78
00
00
00
00
78
fc
fc
fc
3c
3c
7c
78
e0
e0
c0
00
00
ENDCHAR
STARTCHAR <
ENCODING 60
SWIDTH 620 0
DWIDTH 18 0
BBX 18 31 0 -7
BITMAP
0000
0000
0000
0000
0000
000e
003e
01f8
07e0
07e0
3f00
fc00
fc00
3f00
07e0
07e0
01f8
003e
000e
0000
0000
0000
0000
0000
0000
0000
0000
0000
0000
0000
0000
ENDCHAR
STARTCHAR =
ENCODING 61
SWIDTH 689 0
DWIDTH 20 0
BBX 20 31 0 -7
BITMAP
000000
000000
000000
000000
000000
000000
000000
000000
000000
000000
000000
ffff80
ffff80
000000
000000
000000
ffff80
ffff80
000000
000000
000000
000000
000000
000000
000000
000000
000000
000000
000000
000000
000000
ENDCHAR
STARTCHAR >
ENCODING 62
SWIDTH 620 0
DWIDTH 18 0
BBX 18 31 0 -7
BITMAP
0000
0000
0000
0000
0000
e000
fc00
3f00
07e0
07e0
01f8
003e
003e
01f8
07e0
07e0
3f00
fc00
e000
0000
0000
0000
0000
0000
0000
0000
0000
0000
0000
0000
0000
ENDCHAR
STARTCHAR ?
ENCODING 63
SWIDTH 482 0
DWIDTH 14 0
BBX 14 31 0 -7
BITMAP
0000
3f80
7be0
7be0
e0e0
f8f0
f9f0
61f0
03f0
03f0
07e0
0f80
0f00
0e00
0c00
0c00
0c00
0c00
0000
0000
0e00
0e00
3f00
0e00
0000
0000
0000
0000
0000
0000
0000
ENDCHAR
STARTCHAR @
ENCODING 64
SWIDTH 862 0
DWIDTH 25 0
BBX 25 31 0 -7
BITMAP
000000
000000
000000
000000
000000
000000
07ffc0
0fffe0
1e00f0
3c00f0
780078
f3f83c
f7fc3c
ef9f3c
ef0f3c
ef0f3c
ef0f3c
ef0f3c
ef0f78
ef9ff0
e7ffe0
e1fe00
f00000
7ffffc
1ffffc
000000
000000
000000
000000
000000
000000
ENDCHAR
STARTCHAR A
ENCODING 65
SWIDTH 758 0
DWIDTH 22 0
BBX 22 31 0 -7
BITMAP
000000
00f000
00f000
01f800
01f800
01f800
03fc00
03fc00
03fc00
079e00
079e00
079e00
0f0f00
0f0f00
0f0f00
1fff80
1fff80
1fff80
3c03c0
3c03c0
3c03c0
7801e0
7801e0
f801f0
000000
000000
000000
000000
000000
000000
000000
ENDCHAR
STARTCHAR B
ENCODING 66
SWIDTH 724 0
DWIDTH 21 0
BBX 21 31 0 -7
BITMAP
000000
fffc00
ffff00
ffff80
f01fc0
f007c0
f003c0
f003c0
f003c0
f007c0
f01f80
ffff00
fffc00
ffff00
f01f80
f007c0
f003c0
f003c0
f003c0
f007c0
f01fc0
ffff80
ffff00
fffc00
000000
000000
000000
000000
000000
000000
000000
ENDCHAR
STARTCHAR C
ENCODING 67
SWIDTH 724 0
DWIDTH 21 0
BBX 21 31 0 -7
BITMAP
000000
03fc00
0fff00
1fff80
3f0fc0
7e07e0
7c03e0
f801e0
f80000
f00000
f00000
f00000
f00000
f00000
f00000
f00000
f80000
f801e0
7c03e0
7e07e0
3f0fc0
1fff80
0fff00
03fc00
000000
000000
000000
000000
000000
000000
000000
ENDCHAR
STARTCHAR D
ENCODING 68
SWIDTH 724 0
DWIDTH 21 0
BBX 21 31 0 -7
BITMAP
000000
fff800
fffe00
ffff00
f03f80
f00f80
f007c0
f007c0
f003c0
f003c0
f003c0
f003c0
f003c0
f003c0
f003c0
f003c0
f003c0
f007c0
f007c0
f00fc0
f03f80
ffff80
fffe00
fff800
000000
000000
000000
000000
000000
000000
000000
ENDCHAR
STARTCHAR E
ENCODING 69
SWIDTH 655 0
DWIDTH 19 0
BBX 19 31 0 -7
BITMAP
0000
ffff
ffff
ffff
f000
f000
f000
f000
f000
f000
f000
fff0
fff0
fff0
f000
f000
f000
f000
f000
f000
f000
ffff
ffff
ffff
0000
0000
0000
0000
0000
0000
0000
ENDCHAR
STARTCHAR F
ENCODING 70
SWIDTH 655 0
DWIDTH 19 0
BBX 19 31 0 -7
BITMAP
0000
ffff
ffff
ffff
f000
f000
f000
f000
f000
f000
f000
fff0
fff0
fff0
f000
f000
f000
f000
f000
f000
f000
f000
f000
f000
0000
0000
0000
0000
0000
0000
0000
ENDCHAR
STARTCHAR G
ENCODING 71
SWIDTH 758 0
DWIDTH 22 0
BBX 22 31 0 -7
BITMAP
000000
0ffe00
1fff80
3fff80
7e0fc0
7c03e0
f801e0
f801e0
f00000
f00000
f00000
f00000
f00000
f03fe0
f03fe0
f03fe0
f001e0
f801e0
f803e0
7c07e0
7e0fe0
3fffe0
1fffe0
0ffee0
000000
000000
000000
000000
000000
000000
000000
ENDCHAR
STARTCHAR H
ENCODING 72
SWIDTH 689 0
DWIDTH 20 0
BBX 20 31 0 -7
BITMAP
000000
f00780
f00780
f00780
f00780
f00780
f00780
f00780
f00780
f00780
f00780
ffff80
ffff80
ffff80
f00780
f00780
f00780
f00780
f00780
f00780
f00780
f00780
f00780
f00780
000000
000000
000000
000000
000000
000000
000000
ENDCHAR
STARTCHAR I
ENCODING 73
SWIDTH 275 0
DWIDTH 8 0
BBX 8 31 0 -7
BITMAP
00
f0
f0
f0
f0
f0
f0
f0
f0
f0
f0
f0
f0
f0
f0
f0
f0
f0
f0
f0
f0
f0
f0
f0
00
00
00
00
00
00
00
ENDCHAR
STARTCHAR J
ENCODING 74
SWIDTH 620 0
DWIDTH 18 0
BBX 18 31 0 -7
BITMAP
0000
003c
003c
003c
003c
003c
003c
003c
003c
003c
003c
003c
003c
003c
003c
003c
003c
003c
f03c
f07c
f87c
7ffc
7ff8
1fe0
0000
0000
0000
0000
0000
0000
0000
ENDCHAR
STARTCHAR K
ENCODING 75
SWIDTH 689 0
DWIDTH 20 0
BBX 20 31 0 -7
BITMAP
0000
f00f
f01f
f03f
f07e
f0fc
f1f8
f3f0
f7e0
ffc0
ff80
ff00
fe00
ff00
ff80
f7c0
f3e0
f1f0
f0f8
f07c
f03e
f01f
f01f
f00f
0000
0000
0000
0000
0000
0000
0000
ENDCHAR
STARTCHAR L
ENCODING 76
SWIDTH 586 0
DWIDTH 17 0
BBX 17 31 0 -7
BITMAP
0000
f000
f000
f000
f000
f000
f000
f000
f000
f000
f000
f000
f000
f000
f000
f000
f000
f000
f000
f000
f000
fffc
fffc
fffc
0000
0000
0000
0000
0000
0000
0000
ENDCHAR
STARTCHAR M
ENCODING 77
SWIDTH 896 0
DWIDTH 26 0
BBX 26 31 0 -7
BITMAP
000000
f0003c
f8007c
f8007c
fc00fc
fc00fc
fc00fc
fe01fc
fe01fc
ff03fc
ff03fc
ff87fc
ff87fc
ff87fc
f7cfbc
f7cfbc
f3cf3c
f3ff3c
f1fe3c
f1fe3c
f1fe3c
f0fc3c
f0fc3c
f0783c
000000
000000
000000
000000
000000
000000
000000
ENDCHAR
STARTCHAR N
ENCODING 78
SWIDTH 724 0
DWIDTH 21 0
BBX 21 31 0 -7
BITMAP
000000
fc03c0
fc03c0
fe03c0
fe03c0
ff03c0
ff03c0
ff83c0
ff83c0
f7c3c0
f7c3c0
f3e3c0
f3e3c0
f1f3c0
f1f3c0
f0fbc0
f0fbc0
f07fc0
f07fc0
f03fc0
f03fc0
f01fc0
f01fc0
f00fc0
000000
000000
000000
000000
000000
000000
000000
ENDCHAR
STARTCHAR O
ENCODING 79
SWIDTH 724 0
DWIDTH 21 0
BBX 21 31 0 -7
BITMAP
000000
03f800
0ffe00
1fff00
3e0f80
3c0780
7803c0
7803c0
f001e0
f001e0
f001e0
f001e0
f001e0
f001e0
f001e0
f001e0
f001e0
f001e0
f803e0
7803c0
7c07c0
3e0f80
3fff80
1fff00
03f800
000000
000000
000000
000000
000000
000000
ENDCHAR
STARTCHAR P
ENCODING 80
SWIDTH 689 0
DWIDTH 20 0
BBX 20 31 0 -7
BITMAP
000000
fffc00
fffe00
ffff00
f01f80
f00f80
f00780
f00780
f00780
f00f80
f01f80
ffff00
fffe00
fff800
f00000
f00000
f00000
f00000
f00000
f00000
f00000
f00000
f00000
f00000
000000
000000
000000
000000
000000
000000
000000
ENDCHAR
STARTCHAR Q
ENCODING 81
SWIDTH 724 0
DWIDTH 21 0
BBX 21 31 0 -7
BITMAP
000000
03f800
0ffe00
1fff00
3e0f80
3c0780
7803c0
7803c0
f001e0
f001e0
f001e0
f001e0
f001e0
f001e0
f001e0
f001e0
f001e0
f001e0
f803e0
7803c0
7c07c0
3e0f80
3fff80
1fff00
03f800
007c00
003f80
001fc0
000fc0
000000
000000
ENDCHAR
STARTCHAR R
ENCODING 82
SWIDTH 689 0
DWIDTH 20 0
BBX 20 31 0 -7
BITMAP
000000
fffc00
fffe00
ffff00
f01f80
f00f80
f00780
f00780
f00780
f00f80
f01f80
ffff00
fffe00
fff800
f1f000
f0f800
f0f800
f07c00
f03e00
f03f00
f01f00
f00f80
f00f80
f00780
000000
000000
000000
000000
000000
000000
000000
ENDCHAR
STARTCHAR S
ENCODING 83
SWIDTH 655 0
DWIDTH 19 0
BBX 19 31 0 -7
BITMAP
0000
07e0
1ff8
3ffe
7e7f
781f
f00f
f000
f000
f000
f800
7e00
7fe0
3ffc
0ffe
00fe
001f
000f
000f
f00f
f81f
fe7e
7ffe
1ffc
07e0
0000
0000
0000
0000
0000
0000
ENDCHAR
STARTCHAR T
ENCODING 84
SWIDTH 689 0
DWIDTH 20 0
BBX 20 31 0 -7
BITMAP
000000
ffffc0
ffffc0
ffffc0
01e000
01e000
01e000
01e000
01e000
01e000
01e000
01e000
01e000
01e000
01e000
01e000
01e000
01e000
01e000
01e000
01e000
01e000
01e000
01e000
000000
000000
000000
000000
000000
000000
000000
ENDCHAR
STARTCHAR U
ENCODING 85
SWIDTH 724 0
DWIDTH 21 0
BBX 21 31 0 -7
BITMAP
000000
f003c0
f003c0
f003c0
f003c0
f003c0
f003c0
f003c0
f003c0
f003c0
f003c0
f003c0
f003c0
f003c0
f003c0
f003c0
f003c0
f003c0
f003c0
f807c0
7c0f80
7fff80
3fff00
0ffc00
000000
000000
000000
000000
000000
000000
000000
ENDCHAR
STARTCHAR V
ENCODING 86
SWIDTH 724 0
DWIDTH 21 0
BBX 21 31 0 -7
BITMAP
000000
f001e0
f001e0
f803e0
f803e0
7803c0
7c07c0
3c0780
3c0780
3c0780
3e0f80
1e0f00
1e0f00
1f1f00
1f1f00
0f1e00
0f1e00
0fbe00
07bc00
07bc00
07fc00
07fc00
01f000
01f000
000000
000000
000000
000000
000000
000000
000000
ENDCHAR
STARTCHAR W
ENCODING 87
SWIDTH 1103 0
DWIDTH 32 0
BBX 32 31 0 -7
BITMAP
00000000
f000003c
f000003c
f000003c
f807807c
78078078
78078078
7c0fc0f8
3c0fc0f0
3c0fc0f0
3e1fe1f0
1e1fe1e0
1e1fe1e0
1f3ff3e0
0f3cf3c0
0f3cf3c0
0ffcffc0
07f87f80
07f87f80
07f87f80
03f03f00
03f03f00
01e01e00
01e01e00
00000000
00000000
00000000
00000000
00000000
00000000
00000000
ENDCHAR
STARTCHAR X
ENCODING 88
SWIDTH 689 0
DWIDTH 20 0
BBX 20 31 0 -7
BITMAP
000000
f003c0
f003c0
f807c0
7c0f80
7c0f80
3e1f00
1f3e00
1f3e00
0ffc00
07f800
03f000
01e000
03f000
07f800
0ffc00
1f3e00
1f3e00
3e1f00
7c0f80
7c0f80
f807c0
f003c0
f003c0
000000
000000
000000
000000
000000
000000
000000
ENDCHAR
STARTCHAR Y
ENCODING 89
SWIDTH 689 0
DWIDTH 20 0
BBX 20 31 0 -7
BITMAP
000000
f003c0
f003c0
f807c0
7c0f80
7c0f80
3e1f00
1f3e00
1f3e00
0ffc00
07f800
03f000
03f000
01e000
01e000
01e000
01e000
01e000
01e000
01e000
01e000
01e000
01e000
01e000
000000
000000
000000
000000
000000
000000
000000
ENDCHAR
STARTCHAR Z
ENCODING 90
SWIDTH 655 0
DWIDTH 19 0
BBX 19 31 0 -7
BITMAP
000000
ffff80
ffff80
ffff80
000f80
001f00
001f00
003e00
007e00
00fc00
00f800
01f000
03f000
07e000
07c000
0f8000
1f8000
3f0000
3e0000
7c0000
fc0000
ffff80
ffff80
ffff80
000000
000000
000000
000000
000000
000000
000000
ENDCHAR
STARTCHAR [
ENCODING 91
SWIDTH 448 0
DWIDTH 13 0
BBX 13 31 0 -7
BITMAP
ffc0
ffc0
f000
f000
f000
f000
f000
f000
f000
f000
f000
f000
f000
f000
f000
f000
f000
f000
f000
f000
f000
f000
f000
f000
f000
f000
f000
f000
ffc0
ffc0
0000
ENDCHAR
STARTCHAR \
ENCODING 92
SWIDTH 586 0
DWIDTH 17 0
BBX 17 31 0 -7
BITMAP
f000
f800
7800
7800
7800
7c00
1c00
1c00
1e00
1e00
0e00
0e00
0f00
0700
0700
0700
07c0
03c0
03c0
03e0
01e0
01e0
01e0
01f0
0070
0070
0078
0078
0038
0038
0000
ENDCHAR
STARTCHAR ]
ENCODING 93
SWIDTH 448 0
DWIDTH 13 0
BBX 13 31 0 -7
BITMAP
ffc0
ffc0
03c0
03c0
03c0
03c0
03c0
03c0
03c0
03c0
03c0
03c0
03c0
03c0
03c0
03c0
03c0
03c0
03c0
03c0
03c0
03c0
03c0
03c0
03c0
03c0
03c0
03c0
ffc0
ffc0
0000
ENDCHAR
STARTCHAR _
ENCODING 95
SWIDTH 655 0
DWIDTH 19 0
BBX 19 31 0 -7
BITMAP
000000
000000
000000
000000
000000
000000
000000
000000
000000
000000
000000
000000
000000
000000
000000
000000
000000
000000
000000
000000
000000
000000
000000
000000
000000
ffffe0
ffffe0
ffffe0
000000
000000
000000
ENDCHAR
STARTCHAR `
ENCODING 96
SWIDTH 310 0
DWIDTH 9 0
BBX 9 31 0 -7
BITMAP
00
7c
fe
fe
fc
c0
e0
78
3c
3c
0e
00
00
00
00
00
00
00
00
00
00
00
00
00
00
00
00
00
00
00
00
ENDCHAR
STARTCHAR a
ENCODING 97
SWIDTH 586 0
DWIDTH 17 0
BBX 17 31 0 -7
BITMAP
0000
0000
0000
0000
0000
0000
0000
0000
0fc0
3ff0
7ff8
f878
f03c
003c
0ffc
3ffc
7ffc
f87c
f03c
f03c
f07c
f9fc
7ffc
3ffc
1fbc
0000
0000
0000
0000
0000
0000
ENDCHAR
STARTCHAR b
ENCODING 98
SWIDTH 655 0
DWIDTH 19 0
BBX 19 31 0 -7
BITMAP
0000
f000
f000
f000
f000
f000
f000
f000
f7f0
fff8
fffc
fe3e
fc1e
f81f
f00f
f00f
f00f
f00f
f81f
fc1e
fe3e
fffc
fff8
f7f0
0000
0000
0000
0000
0000
0000
0000
ENDCHAR
STARTCHAR c
ENCODING 99
SWIDTH 551 0
DWIDTH 16 0
BBX 16 31 0 -7
BITMAP
0000
0000
0000
0000
0000
0000
0000
0000
0fe0
3ff8
3ff8
7c7c
783c
f800
f000
f000
f000
f000
f800
783c
7c7c
3ff8
3ff8
0fe0
0000
0000
0000
0000
0000
0000
0000
ENDCHAR
STARTCHAR d
ENCODING 100
SWIDTH 620 0
DWIDTH 18 0
BBX 18 31 0 -7
BITMAP
0000
000f
000f
000f
000f
000f
000f
000f
0fef
1fff
3fff
7c7f
783f
f81f
f00f
f00f
f00f
f00f
f81f
f83f
7c7f
7fff
3fff
0fef
0000
0000
0000
0000
0000
0000
0000
ENDCHAR
STARTCHAR e
ENCODING 101
SWIDTH 655 0
DWIDTH 19 0
BBX 19 31 0 -7
BITMAP
0000
0000
0000
0000
0000
0000
0000
0000
07e0
1ff8
3ffc
7c3e
781e
f00f
ffff
ffff
ffff
f000
f000
f80f
7c1f
7ffe
3ffc
0ff0
0000
0000
0000
0000
0000
0000
0000
ENDCHAR
STARTCHAR f
ENCODING 102
SWIDTH 413 0
DWIDTH 12 0
BBX 12 31 0 -7
BITMAP
0000
0780
0f80
1f80
1e00
3c00
3c00
3c00
ff80
ff80
ff80
3c00
3c00
3c00
3c00
3c00
3c00
3c00
3c00
3c00
3c00
3c00
3c00
3c00
0000
0000
0000
0000
0000
0000
0000
ENDCHAR
STARTCHAR g
ENCODING 103
SWIDTH 586 0
DWIDTH 17 0
BBX 17 31 0 -7
BITMAP
0000
0000
0000
0000
0000
0000
0000
0000
1fde
3ffe
7ffc
78f0
f078
f078
f078
f8f8
7ff0
7ff0
3fc0
fc00
f000
7fe0
3ff8
7ffc
f87c
f03c
f87c
fffc
7ff8
1fe0
0000
ENDCHAR
STARTCHAR h
ENCODING 104
SWIDTH 586 0
DWIDTH 17 0
BBX 17 31 0 -7
BITMAP
0000
f000
f000
f000
f000
f000
f000
f000
f7e0
fff0
fff0
fcf8
f878
f87c
f03c
f03c
f03c
f03c
f03c
f03c
f03c
f03c
f03c
f03c
0000
0000
0000
0000
0000
0000
0000
ENDCHAR
STARTCHAR i
ENCODING 105
SWIDTH 310 0
DWIDTH 9 0
BBX 9 31 0 -7
BITMAP
00
f0
f0
f0
f0
00
00
00
f0
f0
f0
f0
f0
f0
f0
f0
f0
f0
f0
f0
f0
f0
f0
f0
00
00
00
00
00
00
00
ENDCHAR
STARTCHAR j
ENCODING 106
SWIDTH 413 0
DWIDTH 12 0
BBX 12 31 0 -7
BITMAP
00
0f
0f
0f
0f
00
00
00
0f
0f
0f
0f
0f
0f
0f
0f
0f
0f
0f
0f
0f
0f
0f
0f
0f
1f
3f
fe
fc
f8
00
ENDCHAR
STARTCHAR k
ENCODING 107
SWIDTH 586 0
DWIDTH 17 0
BBX 17 31 0 -7
BITMAP
0000
f000
f000
f000
f000
f000
f000
f000
f070
f0f0
f1f0
f3e0
f7c0
ff80
ff00
ff00
ff80
ffc0
f3e0
f1f0
f0f8
f07c
f03c
f01c
0000
0000
0000
0000
0000
0000
0000
ENDCHAR
STARTCHAR l
ENCODING 108
SWIDTH 310 0
DWIDTH 9 0
BBX 9 31 0 -7
BITMAP
00
f0
f0
f0
f0
f0
f0
f0
f0
f0
f0
f0
f0
f0
f0
f0
f0
f0
f0
f0
f0
f0
f0
f0
00
00
00
00
00
00
00
ENDCHAR
STARTCHAR m
ENCODING 109
SWIDTH 827 0
DWIDTH 24 0
BBX 24 31 0 -7
BITMAP
000000
000000
000000
000000
000000
000000
000000
000000
f7c7c0
ffefe0
fffff0
fefef8
fc7c78
f87878
f07878
f07878
f07878
f07878
f07878
f07878
f07878
f07878
f07878
f07878
000000
000000
000000
000000
000000
000000
000000
ENDCHAR
STARTCHAR n
ENCODING 110
SWIDTH 586 0
DWIDTH 17 0
BBX 17 31 0 -7
BITMAP
0000
0000
0000
0000
0000
0000
0000
0000
f7e0
fff0
fff8
fef8
fc7c
f83c
f03c
f03c
f03c
f03c
f03c
f03c
f03c
f03c
f03c
f03c
0000
0000
0000
0000
0000
0000
0000
ENDCHAR
STARTCHAR o
ENCODING 111
SWIDTH 620 0
DWIDTH 18 0
BBX 18 31 0 -7
BITMAP
0000
0000
0000
0000
0000
0000
0000
0000
0fe0
3ff8
3ff8
7efc
783c
f83e
f01e
f01e
f01e
f01e
f83e
f83c
7efc
7ffc
3ff8
0fe0
0000
0000
0000
0000
0000
0000
0000
ENDCHAR
STARTCHAR p
ENCODING 112
SWIDTH 655 0
DWIDTH 19 0
BBX 19 31 0 -7
BITMAP
0000
0000
0000
0000
0000
0000
0000
0000
f7f0
fff8
fffc
fe7e
f81e
f81f
f00f
f00f
f00f
f00f
f81f
f81e
fe7e
fffc
fff8
f7f0
f000
f000
f000
f000
f000
f000
0000
ENDCHAR
STARTCHAR q
ENCODING 113
SWIDTH 655 0
DWIDTH 19 0
BBX 19 31 0 -7
BITMAP
0000
0000
0000
0000
0000
0000
0000
0000
0fef
1fff
3fff
7e7f
781f
f81f
f00f
f00f
f00f
f00f
f81f
781f
7e7f
3fff
1fff
0fef
000f
000f
000f
000f
000f
000f
0000
ENDCHAR
STARTCHAR r
ENCODING 114
SWIDTH 482 0
DWIDTH 14 0
BBX 14 31 0 -7
BITMAP
0000
0000
0000
0000
0000
0000
0000
0000
f1e0
f3e0
ffe0
ff80
fe00
fc00
f800
f000
f000
f000
f000
f000
f000
f000
f000
f000
0000
0000
0000
0000
0000
0000
0000
ENDCHAR
STARTCHAR s
ENCODING 115
SWIDTH 551 0
DWIDTH 16 0
BBX 16 31 0 -7
BITMAP
0000
0000
0000
0000
0000
0000
0000
0000
0f80
3fe0
7ff0
f8f8
f078
f000
fc00
7fe0
3ff0
01f8
0078
f078
f8f8
7ff0
3fe0
0f80
0000
0000
0000
0000
0000
0000
0000
ENDCHAR
STARTCHAR t
ENCODING 116
SWIDTH 448 0
DWIDTH 13 0
BBX 13 31 0 -7
BITMAP
0000
3c00
3c00
3c00
3c00
3c00
3c00
ff80
ff80
ff80
3c00
3c00
3c00
3c00
3c00
3c00
3c00
3c00
3c00
3c00
3e00
3f80
1f80
0f80
0000
0000
0000
0000
0000
0000
0000
ENDCHAR
STARTCHAR u
ENCODING 117
SWIDTH 620 0
DWIDTH 18 0
BBX 18 31 0 -7
BITMAP
0000
0000
0000
0000
0000
0000
0000
0000
f01e
f01e
f01e
f01e
f01e
f01e
f01e
f01e
f01e
f01e
f01e
f01e
f83e
fffe
7ffe
1ffe
0000
0000
0000
0000
0000
0000
0000
ENDCHAR
STARTCHAR v
ENCODING 118
SWIDTH 655 0
DWIDTH 19 0
BBX 19 31 0 -7
BITMAP
0000
0000
0000
0000
0000
0000
0000
0000
f00f
f00f
781e
781e
3c3c
3c3c
1e78
1e78
0ff0
0ff0
07e0
07e0
03c0
03c0
0180
0180
0000
0000
0000
0000
0000
0000
0000
ENDCHAR
STARTCHAR w
ENCODING 119
SWIDTH 896 0
DWIDTH 26 0
BBX 26 31 0 -7
BITMAP
000000
000000
000000
000000
000000
000000
000000
000000
f03c0f
f03c0f
f07e0f
787e1e
787e1e
78ff1e
3cff3c
3cff3c
3cff3c
1fe7f8
1fe7f8
1fc7f8
0fc3f0
0fc3f0
0fc3f0
0781e0
000000
000000
000000
000000
000000
000000
000000
ENDCHAR
STARTCHAR x
ENCODING 120
SWIDTH 655 0
DWIDTH 19 0
BBX 19 31 0 -7
BITMAP
000000
000000
000000
000000
000000
000000
000000
000000
f00780
f80f80
7c1f00
3e3e00
1f7c00
0ff800
07f000
03e000
07f000
0ff800
1f7c00
3e3e00
7c1f00
f80f80
f00780
e00380
000000
000000
000000
000000
000000
000000
000000
ENDCHAR
STARTCHAR y
ENCODING 121
SWIDTH 620 0
DWIDTH 18 0
BBX 18 31 0 -7
BITMAP
0000
0000
0000
0000
0000
0000
0000
0000
f00f
f00f
f81f
781e
7c3e
3c3c
3e7c
1e78
1ff8
0ff0
0ff0
07e0
07e0
03e0
03c0
03c0
07c0
0780
0f80
ff00
ff00
fc00
0000
ENDCHAR
STARTCHAR z
ENCODING 122
SWIDTH 551 0
DWIDTH 16 0
BBX 16 31 0 -7
BITMAP
0000
0000
0000
0000
0000
0000
0000
0000
fffc
fffc
fffc
007c
00f8
01f0
03e0
07c0
0f80
1f00
3e00
7c00
f800
fffc
fffc
fffc
0000
0000
0000
0000
0000
0000
0000
ENDCHAR
STARTCHAR {
ENCODING 123
SWIDTH 482 0
DWIDTH 14 0
BBX 14 31 0 -7
BITMAP
07e0
0f00
1c00
1c00
1c00
1c00
1e00
0e00
0e00
0e00
0e00
0c00
1800
7800
f800
f800
7800
1800
0c00
0e00
0e00
0e00
0e00
1e00
1c00
1c00
1c00
1c00
0f00
07e0
0000
ENDCHAR
STARTCHAR |
ENCODING 124
SWIDTH 310 0
DWIDTH 9 0
BBX 9 31 0 -7
BITMAP
f0
f0
f0
f0
f0
f0
f0
f0
f0
f0
f0
f0
f0
f0
f0
f0
f0
f0
f0
f0
f0
f0
f0
f0
f0
f0
f0
f0
f0
f0
00
ENDCHAR
STARTCHAR }
ENCODING 125
SWIDTH 482 0
DWIDTH 14 0
BBX 14 31 0 -7
BITMAP
fc00
1e00
0700
0700
0700
0700
0f00
0e00
0e00
0e00
0e00
0600
0300
03c0
03e0
03e0
03c0
0300
0600
0e00
0e00
0e00
0e00
0f00
0700
0700
0700
0700
1e00
fc00
0000
ENDCHAR
STARTCHAR ~
ENCODING 126
SWIDTH 689 0
DWIDTH 20 0
BBX 20 31 0 -7
BITMAP
000000
000000
000000
000000
000000
000000
000000
000000
000000
000000
0f00c0
3f80c0
7fe3c0
7bf780
e1ff80
e1ff80
c0fe00
c03c00
000000
000000
000000
000000
000000
000000
000000
000000
000000
000000
000000
000000
000000
ENDCHAR
STARTCHAR C177
ENCODING 127
SWIDTH 724 0
DWIDTH 21 0
BBX 21 31 0 -7
BITMAP
000000
0001c0
0003e0
0006e0
0006e0
000c00
000c00
001800
001800
003000
003000
006000
006000
00c000
00c000
018000
018000
030000
030000
060000
060000
ec0000
ec0000
f80000
700000
000000
000000
000000
000000
000000
000000
ENDCHAR
ENDFONT
